<svg xmlns="http://www.w3.org/2000/svg" fill="white" width="25.064" height="30.849" viewBox="0 0 25.064 30.849">
  <path id="Icon_metro-bin" data-name="Icon metro-bin" d="M6.427,11.568v19.28a1.934,1.934,0,0,0,1.928,1.928H25.707a1.934,1.934,0,0,0,1.928-1.928V11.568H6.427Zm5.784,17.352H10.283v-13.5h1.928Zm3.856,0H14.139v-13.5h1.928Zm3.856,0H17.995v-13.5h1.928Zm3.856,0H21.851v-13.5h1.928ZM28.117,5.784H21.851V3.374a1.45,1.45,0,0,0-1.446-1.446H13.657a1.45,1.45,0,0,0-1.446,1.446v2.41H5.945A1.45,1.45,0,0,0,4.5,7.23V9.64H29.563V7.23a1.45,1.45,0,0,0-1.446-1.446Zm-8.194,0H14.139V3.88h5.784v1.9Z" transform="translate(-4.499 -1.928)"/>
</svg>
