<svg xmlns="http://www.w3.org/2000/svg" width="24.874" height="24.874" viewBox="0 0 24.874 24.874">
  <path id="Icon_open-sun" data-name="Icon open-sun" d="M12.437,0a1.54,1.54,0,0,0-1.555,1.555,1.555,1.555,0,1,0,3.109,0A1.54,1.54,0,0,0,12.437,0ZM4.664,3.109A1.555,1.555,0,1,0,6.218,4.664,1.54,1.54,0,0,0,4.664,3.109Zm15.546,0a1.555,1.555,0,1,0,1.555,1.555A1.54,1.54,0,0,0,20.21,3.109ZM12.437,6.218a6.218,6.218,0,1,0,6.218,6.218A6.237,6.237,0,0,0,12.437,6.218ZM1.555,10.882a1.555,1.555,0,1,0,0,3.109,1.555,1.555,0,1,0,0-3.109Zm21.765,0a1.555,1.555,0,1,0,1.555,1.555A1.54,1.54,0,0,0,23.319,10.882ZM4.664,18.655A1.555,1.555,0,1,0,6.218,20.21,1.54,1.54,0,0,0,4.664,18.655Zm15.546,0a1.555,1.555,0,1,0,1.555,1.555A1.54,1.54,0,0,0,20.21,18.655Zm-7.773,3.109a1.555,1.555,0,1,0,1.555,1.555A1.54,1.54,0,0,0,12.437,21.765Z" fill="#bdbdbd"/>
</svg>
