<svg xmlns="http://www.w3.org/2000/svg" width="284.007" height="58.958" viewBox="0 0 284.007 58.958">
  <g id="logo" transform="translate(0 -0.002)">
    <g id="Layer_3" data-name="Layer 3" transform="translate(203.259 0.002)">
      <path id="Path_1" data-name="Path 1" d="M105.14,33.67v2.972h19.68l3.188-13.009,5,24.01a2.263,2.263,0,0,0,2.342,1.5c1.732-.2,1.968-.63,1.968-.63a2.7,2.7,0,0,0,.689-1.161c.138-.61.925-4.979.925-4.979l6.278-29.816,6.672,35.956a2.322,2.322,0,0,0,1.673,1.417,2.775,2.775,0,0,0,2.145-.216,3.031,3.031,0,0,0,1.161-1.319,34.464,34.464,0,0,0,1.122-3.936l4.625-15.075,4.507,17.24a2.736,2.736,0,0,0,4.094.649l2.539-5.137,1.968-4.074h10.175V35.067h-12.6l-3.621,7.971L165.086,25.03s0-.728-1.771-1.043a2.6,2.6,0,0,0-2.578.886L154.7,44.1,147.61,7.357a2.283,2.283,0,0,0-1.5-1.2,4.448,4.448,0,0,0-2.224.157s-1.161.669-1.279,1.555-7.026,34.854-7.026,34.854l-5.137-23.931a2.362,2.362,0,0,0-1.437-1.181,2.991,2.991,0,0,0-2.3.3s-1,.61-1.063,1.417-3.582,14.5-3.582,14.5Z" transform="translate(-105.14 -6.082)" fill="#69beeb"/>
    </g>
    <g id="Layer_4" data-name="Layer 4" transform="translate(0 2.832)">
      <path id="Path_2" data-name="Path 2" d="M38.761,31.524c-.315-5.9-.708-13.028-.63-18.322h-.2c-1.456,4.979-3.208,10.273-5.353,16.118l-7.5,20.605H20.93L14.062,29.713c-1.968-5.9-3.7-11.474-4.9-16.512H9.024c-.118,5.294-.433,12.418-.807,18.775L7.075,50.18H1.86L4.812,7.73H11.8l7.242,20.527c1.771,5.235,3.208,9.84,4.29,14.288h.177c1.082-4.271,2.578-8.935,4.467-14.288L35.592,7.73H42.6l2.578,42.45H39.823Z" transform="translate(-1.86 -7.317)" fill="#32393d"/>
      <path id="Path_3" data-name="Path 3" d="M28.06,9.258a59.631,59.631,0,0,1,10.076-.787c5.2,0,8.994,1.2,11.415,3.385a10.942,10.942,0,0,1,3.562,8.5,12,12,0,0,1-3.149,8.7,16.886,16.886,0,0,1-12.438,4.467,17.279,17.279,0,0,1-4.212-.394V49.465H28.06Zm5.255,19.68a17.988,17.988,0,0,0,4.349.413c6.337,0,10.194-3.07,10.194-8.679s-3.8-7.971-9.6-7.971a22.475,22.475,0,0,0-4.94.413Z" transform="translate(23.502 -6.601)" fill="#32393d"/>
      <path id="Path_4" data-name="Path 4" d="M44.13,7.52h5.314V50.384H44.13Z" transform="translate(39.059 -7.52)" fill="#32393d"/>
      <path id="Path_5" data-name="Path 5" d="M68.66,44l-.413-3.7H68.07a10.883,10.883,0,0,1-8.935,4.349A8.305,8.305,0,0,1,50.2,36.271c0-7.065,6.278-10.923,17.555-10.864V24.8c0-2.4-.649-6.75-6.632-6.75a14.583,14.583,0,0,0-7.6,2.165l-1.22-3.5a18.3,18.3,0,0,1,9.6-2.6c8.935,0,11.1,6.1,11.1,11.966V37A40.049,40.049,0,0,0,73.423,44Zm-.768-14.918c-5.806-.118-12.379.905-12.379,6.573a4.7,4.7,0,0,0,5,5.078,7.262,7.262,0,0,0,7.006-4.9,5.589,5.589,0,0,0,.315-1.673Z" transform="translate(44.934 -1.141)" fill="#32393d"/>
      <path id="Path_6" data-name="Path 6" d="M69.726,14.489l6.4,17.26c.669,1.968,1.4,4.231,1.968,5.9h.118c.551-1.752,1.161-3.936,1.968-6.1l5.9-17.142h5.609L83.424,35.251c-3.8,10.017-6.4,15.154-10.017,18.3a14.426,14.426,0,0,1-6.514,3.424l-1.338-4.467a13.973,13.973,0,0,0,4.664-2.578,16.551,16.551,0,0,0,4.467-5.9,3.936,3.936,0,0,0,.413-1.26,4.7,4.7,0,0,0-.354-1.4L63.94,14.489Z" transform="translate(58.236 -0.85)" fill="#32393d"/>
      <path id="Path_7" data-name="Path 7" d="M84.038,30.337c.118,7.183,4.7,10.155,10.017,10.155a19.169,19.169,0,0,0,8.089-1.515l.905,3.8a23.616,23.616,0,0,1-9.722,1.811c-8.994,0-14.367-5.9-14.367-14.721s5.2-15.744,13.776-15.744c9.545,0,12.084,8.4,12.084,13.776a20.052,20.052,0,0,1-.2,2.44Zm15.567-3.8c0-3.385-1.378-8.62-7.36-8.62-5.373,0-7.734,4.94-8.148,8.62Z" transform="translate(72.775 -1.131)" fill="#32393d"/>
      <path id="Path_8" data-name="Path 8" d="M95.516,23.892c0-3.444,0-6.4-.236-9.112h4.645l.177,5.727h.236a8.777,8.777,0,0,1,8.167-6.4,5.137,5.137,0,0,1,1.515.2v5a8.167,8.167,0,0,0-1.811-.177c-3.739,0-6.4,2.834-7.124,6.829a14.918,14.918,0,0,0-.236,2.46V44H95.516Z" transform="translate(88.574 -1.141)" fill="#32393d"/>
    </g>
  </g>
</svg>
