<svg xmlns="http://www.w3.org/2000/svg" viewBox="0 0 144.27 29.99"><defs><style>.cls-1{fill:#69beeb;}.cls-2{fill:#bcbec0;}</style></defs><g id="Layer_3" data-name="Layer 3"><path class="cls-1" d="M105.14,20.1v1.51h10L116.76,15l2.54,12.2a1.15,1.15,0,0,0,1.19.76c.88-.1,1-.32,1-.32a1.37,1.37,0,0,0,.35-.59c.07-.31.47-2.53.47-2.53L125.5,9.37l3.39,18.27a1.18,1.18,0,0,0,.85.72,1.41,1.41,0,0,0,1.09-.11,1.54,1.54,0,0,0,.59-.67,17.51,17.51,0,0,0,.57-2l2.35-7.66,2.29,8.76a1.39,1.39,0,0,0,2.08.33L140,24.4l1-2.07h5.17V20.81h-6.4l-1.84,4.05-2.33-9.15s0-.37-.9-.53a1.32,1.32,0,0,0-1.31.45l-3.07,9.77L126.72,6.73a1.16,1.16,0,0,0-.76-.61,2.26,2.26,0,0,0-1.13.08s-.59.34-.65.79-3.57,17.71-3.57,17.71L118,12.54a1.2,1.2,0,0,0-.73-.6,1.52,1.52,0,0,0-1.17.15s-.51.31-.54.72-1.82,7.37-1.82,7.37Z" transform="translate(-1.86 -6.08)"/></g><g id="Layer_4" data-name="Layer 4"><path class="cls-1" d="M20.61,19.82c-.16-3-.36-6.62-.32-9.31h-.1c-.74,2.53-1.63,5.22-2.72,8.19L13.66,29.17H11.55L8.06,18.9c-1-3-1.88-5.83-2.49-8.39H5.5c-.06,2.69-.22,6.31-.41,9.54L4.51,29.3H1.86L3.36,7.73H6.91l3.68,10.43c.9,2.66,1.63,5,2.18,7.26h.09c.55-2.17,1.31-4.54,2.27-7.26L19,7.73h3.56L23.87,29.3H21.15Z" transform="translate(-1.86 -6.08)"/><path class="cls-2" d="M28.06,8.87a30.3,30.3,0,0,1,5.12-.4c2.64,0,4.57.61,5.8,1.72a5.56,5.56,0,0,1,1.81,4.32,6.1,6.1,0,0,1-1.6,4.42,8.58,8.58,0,0,1-6.32,2.27A8.78,8.78,0,0,1,30.73,21V29.3H28.06Zm2.67,10a9.14,9.14,0,0,0,2.21.21c3.22,0,5.18-1.56,5.18-4.41s-1.93-4.05-4.88-4.05a11.42,11.42,0,0,0-2.51.21Z" transform="translate(-1.86 -6.08)"/><path class="cls-2" d="M44.13,7.52h2.7V29.3h-2.7Z" transform="translate(-1.86 -6.08)"/><path class="cls-2" d="M59.58,29.3l-.21-1.88h-.09a5.53,5.53,0,0,1-4.54,2.21,4.22,4.22,0,0,1-4.54-4.26c0-3.59,3.19-5.55,8.92-5.52v-.31c0-1.22-.33-3.43-3.37-3.43a7.41,7.41,0,0,0-3.86,1.1l-.62-1.78a9.3,9.3,0,0,1,4.88-1.32c4.54,0,5.64,3.1,5.64,6.08v5.55A20.35,20.35,0,0,0,62,29.3Zm-.39-7.58c-2.95-.06-6.29.46-6.29,3.34a2.39,2.39,0,0,0,2.54,2.58A3.69,3.69,0,0,0,59,25.15a2.84,2.84,0,0,0,.16-.85Z" transform="translate(-1.86 -6.08)"/><path class="cls-2" d="M66.88,14.45l3.25,8.77c.34,1,.71,2.15,1,3h.06c.28-.89.59-2,1-3.1l3-8.71h2.85L73.84,25c-1.93,5.09-3.25,7.7-5.09,9.3a7.33,7.33,0,0,1-3.31,1.74l-.68-2.27a7.1,7.1,0,0,0,2.37-1.31,8.41,8.41,0,0,0,2.27-3,2,2,0,0,0,.21-.64,2.39,2.39,0,0,0-.18-.71L63.94,14.45Z" transform="translate(-1.86 -6.08)"/><path class="cls-2" d="M81.54,22.36c.06,3.65,2.39,5.16,5.09,5.16a9.74,9.74,0,0,0,4.11-.77l.46,1.93a12,12,0,0,1-4.94.92c-4.57,0-7.3-3-7.3-7.48s2.64-8,7-8c4.85,0,6.14,4.27,6.14,7A10.19,10.19,0,0,1,92,22.36Zm7.91-1.93c0-1.72-.7-4.38-3.74-4.38-2.73,0-3.93,2.51-4.14,4.38Z" transform="translate(-1.86 -6.08)"/><path class="cls-2" d="M95.4,19.08c0-1.75,0-3.25-.12-4.63h2.36l.09,2.91h.12A4.46,4.46,0,0,1,102,14.11a2.61,2.61,0,0,1,.77.1v2.54a4.15,4.15,0,0,0-.92-.09c-1.9,0-3.25,1.44-3.62,3.47a7.58,7.58,0,0,0-.12,1.25V29.3H95.4Z" transform="translate(-1.86 -6.08)"/></g></svg>