<svg xmlns="http://www.w3.org/2000/svg" width="140.421" height="140.424" viewBox="0 0 140.421 140.424">
  <path id="Icon_awesome-music" data-name="Icon awesome-music" d="M140.419,8.781A8.77,8.77,0,0,0,129.009.413L41.249,26.331A8.774,8.774,0,0,0,35.105,34.7v71.7a37.939,37.939,0,0,0-8.776-1.075C11.788,105.318,0,113.175,0,122.871s11.788,17.553,26.329,17.553,26.329-7.858,26.329-17.553V58.779L122.869,38.2V88.84a37.939,37.939,0,0,0-8.776-1.075c-14.541,0-26.329,7.858-26.329,17.553s11.788,17.553,26.329,17.553,26.329-7.858,26.329-17.553l0-96.537Z" transform="translate(0 0.001)" fill="#32393d"/>
</svg>
