<svg xmlns="http://www.w3.org/2000/svg" width="25.411" height="25.411" viewBox="0 0 25.411 25.411">
  <path id="Icon_awesome-plus" data-name="Icon awesome-plus" d="M23.6,12.233H15.428V4.065A1.815,1.815,0,0,0,13.613,2.25H11.8A1.815,1.815,0,0,0,9.983,4.065v8.168H1.815A1.815,1.815,0,0,0,0,14.048v1.815a1.815,1.815,0,0,0,1.815,1.815H9.983v8.168A1.815,1.815,0,0,0,11.8,27.661h1.815a1.815,1.815,0,0,0,1.815-1.815V17.678H23.6a1.815,1.815,0,0,0,1.815-1.815V14.048A1.815,1.815,0,0,0,23.6,12.233Z" transform="translate(0 -2.25)" fill="#32393d"/>
</svg>
