<svg xmlns="http://www.w3.org/2000/svg" width="24.793" height="17.562" viewBox="0 0 24.793 17.562">
  <g id="Icon_ionic-ios-shuffle" data-name="Icon ionic-ios-shuffle" transform="translate(0 0)">
    <path id="Path_9" data-name="Path 9" d="M26.575,19.544a.91.91,0,0,0-.639-.265.894.894,0,0,0-.639.265.883.883,0,0,0-.265.639.921.921,0,0,0,.265.639l1.052,1.046H21.474L13.468,11.861l-.006-.006a.927.927,0,0,0-.7-.323H5.4a.9.9,0,0,0,0,1.808h6.934l3.39,4.261-3.39,4.261H5.4a.9.9,0,0,0,0,1.808h7.36a.9.9,0,0,0,.691-.323l.006-.006L16.9,19.027l3.435,4.313.006.006a.9.9,0,0,0,.691.323h5.449l-1.052,1.046a.872.872,0,0,0-.265.639.921.921,0,0,0,.265.639.91.91,0,0,0,.639.265.894.894,0,0,0,.639-.265l2.169-2.156a1.4,1.4,0,0,0,0-2Z" transform="translate(-4.5 -8.697)" fill="#c8c9ce"/>
    <path id="Path_10" data-name="Path 10" d="M19.577,15.889a.371.371,0,0,0,.3.136h.006a.376.376,0,0,0,.3-.142l2.447-3.054h4.894l-1.052,1.046a.872.872,0,0,0-.265.639.921.921,0,0,0,.265.639.909.909,0,0,0,.639.265.894.894,0,0,0,.639-.265l2.3-2.286a1.4,1.4,0,0,0,0-2L27.874,8.709a.91.91,0,0,0-.639-.265.894.894,0,0,0-.639.265.883.883,0,0,0-.265.639.921.921,0,0,0,.265.639l1.052,1.046H22.2a.9.9,0,0,0-.691.323l-.006.006L18.9,14.6a.381.381,0,0,0,.006.491Z" transform="translate(-5.67 -8.445)" fill="#c8c9ce"/>
  </g>
</svg>
