<svg xmlns="http://www.w3.org/2000/svg" fill="#BDBDBD" width="27" height="27" viewBox="0 0 27 27">
  <g id="Icon_ionic-md-volume-off" data-name="Icon ionic-md-volume-off" transform="translate(-4.5 -4.5)">
    <path id="Path_25" data-name="Path 25" d="M28.512,18a10.977,10.977,0,0,1-.956,4.49L29.8,24.731A14.012,14.012,0,0,0,31.5,18,13.812,13.812,0,0,0,21.023,4.5V7.663A10.728,10.728,0,0,1,28.512,18Z"/>
    <path id="Path_26" data-name="Path 26" d="M18,5.657l-3.587,3.69L18,12.934Z"/>
    <path id="Path_27" data-name="Path 27" d="M29.59,27.906,6.407,4.722,4.719,6.409l6.363,6.357L10.5,13.5h-6v9h6L18,30.343V19.688l6.674,6.658a10.408,10.408,0,0,1-3.65,1.992V31.5a13.222,13.222,0,0,0,5.788-3.01L29.6,31.281l1.688-1.691L29.6,27.9Z"/>
    <path id="Path_28" data-name="Path 28" d="M24.763,18a7,7,0,0,0-3.74-6.248v4.206L24.6,19.53A7.073,7.073,0,0,0,24.763,18Z"/>
  </g>
</svg>
